#!OML:ASF H:\Not Pregnant\Project 1\Capture day 1\Session 1\non-pregnant.ASF
:FULLY-SPECIFIED
:DEGREES
208
root -5.49355 16.3175 34.895 144.276 -83.8052 -132.95
lowerback -13.3604 2.61434 4.13688
upperback -5.52031 2.69923 -0.542239
thorax 1.89336 1.18035 -2.49833
lowerneck 22.9702 -5.00794 -32.2551
upperneck -5.01 -15.9787 43.5435
head 1.56685 -11.3071 25.514
rclavicle -2.46493e-014 -1.59028e-015
rhumerus -8.89643 3.1837 -88.9318
rradius 140.656
rwrist 23.2539
rhand -55.5342 13.7225
rfingers 7.12502
rthumb -27.891 -14.2266
lclavicle -2.46493e-014 -1.59028e-015
lhumerus -10.4613 -12.6052 85.011
lradius 145.313
lwrist 23.1025
lhand -34.9917 -64.6037
lfingers 7.12502
lthumb -8.13677 -34.7804
rfemur 0 0 0
rtibia 0
rfoot 0 0
rtoes 0
lfemur -15.3653 4.02543 -15.7501
ltibia 15.7683
lfoot -13.1541 -4.9772
ltoes -17.0715
209
root -5.49752 16.3188 34.8948 144.488 -83.8022 -133.125
lowerback -13.4064 2.68764 4.35439
upperback -5.55749 2.77127 -0.733057
thorax 1.9025 1.21074 -2.8082
lowerneck 22.9297 -5.04671 -32.0719
upperneck -4.91137 -16.0158 43.5859
head 1.60235 -11.3357 25.479
rclavicle -1.59028e-015 3.18055e-015
rhumerus -9.47063 3.51697 -89.0639
rradius 140.022
rwrist 23.1877
rhand -55.462 13.1868
rfingers 7.12502
rthumb -27.822 -14.7734
lclavicle -1.59028e-015 3.18055e-015
lhumerus -11.1163 -13.0143 84.8012
lradius 144.635
lwrist 23.0945
lhand -34.9356 -64.6071
lfingers 7.12502
lthumb -8.08265 -34.7816
rfemur 0 0 0
rtibia 0
rfoot 0 0
rtoes 0
lfemur -15.3652 4.05981 -15.7683
ltibia 15.7189
lfoot -13.1383 -5.00652
ltoes -17.062
210
root -5.50182 16.3201 34.8943 144.646 -83.7928 -133.246
lowerback -13.4292 2.7267 4.42381
upperback -5.62043 2.81226 -0.798623
thorax 1.85809 1.22607 -2.91003
lowerneck 22.8991 -5.0734 -31.9971
upperneck -4.80675 -16.0582 43.5689
head 1.6445 -11.3563 25.4226
rclavicle 1.00883e-014 1.59028e-014
rhumerus -10.148 3.97081 -89.0582
rradius 139.31
rwrist 23.0583
rhand -55.3044 12.8573
rfingers 7.12502
rthumb -27.6713 -15.1272
lclavicle 1.00883e-014 1.59028e-014
lhumerus -11.9221 -13.3664 84.7891
lradius 143.912
lwrist 23.0457
lhand -34.8269 -64.5185
lfingers 7.12502
lthumb -7.97767 -34.6891
rfemur 0 0 0
rtibia 0
rfoot 0 0
rtoes 0
lfemur -15.3657 4.09844 -15.7759
ltibia 15.6717
lfoot -13.1231 -5.04251
ltoes -17.007
211
root -5.50652 16.3213 34.8935 144.679 -83.7735 -133.243
lowerback -13.4201 2.73114 4.33809
upperback -5.71291 2.82275 -0.729114
thorax 1.75005 1.22668 -2.78973
lowerneck 22.8827 -5.09131 -32.0309
upperneck -4.69842 -16.1096 43.4858
head 1.69282 -11.3701 25.3382
rclavicle 3.08116e-014 0
rhumerus -10.94 4.5384 -88.9025
rradius 138.525
rwrist 22.8578
rhand -55.0859 12.6392
rfingers 7.12502
rthumb -27.4623 -15.3787
lclavicle 3.08116e-014 0
lhumerus -12.8878 -13.6612 84.9969
lradius 143.135
lwrist 22.939
lhand -34.6887 -64.339
lfingers 7.12502
lthumb -7.84427 -34.5046
rfemur 0 0 0
rtibia 0
rfoot 0 0
rtoes 0
lfemur -15.3669 4.15213 -15.7653
ltibia 15.6301
lfoot -13.1149 -5.09043
ltoes -16.957
212
root -5.5115 16.3225 34.893 144.816 -83.7635 -133.339
lowerback -13.3714 2.68611 4.05579
upperback -5.84596 2.78764 -0.51219
thorax 1.5594 1.20567 -2.41432
lowerneck 22.8683 -5.0872 -32.2136
upperneck -4.56596 -16.1631 43.3293
head 1.75542 -11.3717 25.2346
rclavicle 1.85367e-014 3.57812e-015
rhumerus -11.8518 5.26284 -88.5696
rradius 137.666
rwrist 22.5799
rhand -54.8072 12.4295
rfingers 7.12502
rthumb -27.1958 -15.6304
lclavicle 1.85367e-014 3.57812e-015
lhumerus -14.0373 -13.8538 85.4531
lradius 142.299
lwrist 22.7498
lhand -34.5326 -64.0635
lfingers 7.12502
lthumb -7.69362 -34.2235
rfemur 0 0 0
rtibia 0
rfoot 0 0
rtoes 0
lfemur -15.3763 4.2103 -15.7731
ltibia 15.5945
lfoot -13.1118 -5.14113
ltoes -16.9175
213
root -5.51671 16.3238 34.8924 144.909 -83.7489 -133.388
lowerback -13.3115 2.65109 3.74438
upperback -5.9936 2.76872 -0.284442
thorax 1.34724 1.19351 -2.01009
lowerneck 22.8791 -5.0998 -32.355
upperneck -4.45209 -16.2284 43.1589
head 1.8066 -11.3793 25.1032
rclavicle -1.3418e-015 7.95139e-016
rhumerus -12.8661 5.95847 -88.2345
rradius 136.744
rwrist 22.276
rhand -54.4476 12.2887
rfingers 7.12502
rthumb -26.8517 -15.8246
lclavicle -1.3418e-015 7.95139e-016
lhumerus -15.2644 -14.0884 85.9751
lradius 141.379
lwrist 22.5448
lhand -34.3634 -63.7099
lfingers 7.12502
lthumb -7.53031 -33.864
rfemur 0 0 0
rtibia 0
rfoot 0 0
rtoes 0
lfemur -15.3888 4.27984 -15.7751
ltibia 15.5582
lfoot -13.1104 -5.19742
ltoes -16.8964
